<svg width="29" height="29" viewBox="0 0 29 29" fill="none" xmlns="http://www.w3.org/2000/svg">
<path d="M19.9372 14.5C22.958 14.5 25.3747 16.9167 25.3747 19.9375C25.3747 21.0008 25.0726 22.0038 24.5409 22.8375L28.2626 26.5833L26.583 28.2629L22.813 24.5533C21.9793 25.0729 20.9884 25.375 19.9372 25.375C16.9163 25.375 14.4997 22.9583 14.4997 19.9375C14.4997 16.9167 16.9163 14.5 19.9372 14.5ZM19.9372 16.9167C19.136 16.9167 18.3676 17.2349 17.8011 17.8014C17.2346 18.368 16.9163 19.1363 16.9163 19.9375C16.9163 20.7387 17.2346 21.507 17.8011 22.0736C18.3676 22.6401 19.136 22.9583 19.9372 22.9583C20.7383 22.9583 21.5067 22.6401 22.0732 22.0736C22.6397 21.507 22.958 20.7387 22.958 19.9375C22.958 19.1363 22.6397 18.368 22.0732 17.8014C21.5067 17.2349 20.7383 16.9167 19.9372 16.9167ZM10.8747 4.83334L13.2913 7.25H22.958C23.5989 7.25 24.2136 7.50461 24.6668 7.95783C25.1201 8.41104 25.3747 9.02573 25.3747 9.66667V14.2704C23.9137 12.865 21.9645 12.081 19.9372 12.0833C17.8541 12.0833 15.8564 12.9108 14.3834 14.3838C12.9105 15.8567 12.083 17.8544 12.083 19.9375C12.083 21.4963 12.5301 22.9583 13.2913 24.1667H3.62467C2.98373 24.1667 2.36905 23.9121 1.91583 23.4588C1.46262 23.0056 1.20801 22.3909 1.20801 21.75V7.25C1.20801 5.90875 2.28342 4.83334 3.62467 4.83334H10.8747Z" fill="#03000D"/>
</svg>
