<svg width="48" height="48" viewBox="0 0 48 48" fill="none" xmlns="http://www.w3.org/2000/svg">
<g clip-path="url(#clip0_138_189)">
<path fill-rule="evenodd" clip-rule="evenodd" d="M43.0921 10.222C43.6545 10.7846 43.9704 11.5475 43.9704 12.343C43.9704 13.1385 43.6545 13.9014 43.0921 14.464L20.6061 36.95C20.3089 37.2472 19.9561 37.483 19.5678 37.6439C19.1795 37.8047 18.7633 37.8875 18.3431 37.8875C17.9228 37.8875 17.5066 37.8047 17.1183 37.6439C16.73 37.483 16.3772 37.2472 16.0801 36.95L4.90805 25.78C4.62152 25.5033 4.39298 25.1722 4.23575 24.8062C4.07852 24.4402 3.99576 24.0465 3.9923 23.6482C3.98884 23.2499 4.06474 22.8548 4.21559 22.4861C4.36643 22.1175 4.58919 21.7825 4.87087 21.5008C5.15255 21.2191 5.4875 20.9964 5.85619 20.8455C6.22488 20.6947 6.61992 20.6188 7.01826 20.6223C7.41659 20.6257 7.81025 20.7085 8.17627 20.8657C8.54228 21.0229 8.87331 21.2515 9.15005 21.538L18.3421 30.73L38.8481 10.222C39.1267 9.94322 39.4575 9.72207 39.8216 9.57119C40.1857 9.4203 40.5759 9.34264 40.9701 9.34264C41.3642 9.34264 41.7544 9.4203 42.1185 9.57119C42.4827 9.72207 42.8134 9.94322 43.0921 10.222Z" fill="#F72346"/>
</g>
<defs>
<clipPath id="clip0_138_189">
<rect width="48" height="48" fill="white"/>
</clipPath>
</defs>
</svg>
